<?xml version="1.0" encoding="utf-8"?>
<!-- Generator: Adobe Illustrator 24.1.2, SVG Export Plug-In . SVG Version: 6.00 Build 0)  -->
<svg version="1.1" id="Camada_1" xmlns="http://www.w3.org/2000/svg" xmlns:xlink="http://www.w3.org/1999/xlink" x="0px" y="0px"
	 viewBox="0 0 350 93.2" style="enable-background:new 0 0 350 93.2;" xml:space="preserve">
<style type="text/css">
	.st0{fill:#D31309;}
</style>
<g>
	<g>
		<path class="st0" d="M20.7,1.3c13.4,0.7,18.5,15.8,18.6,26.9c0,8.2-3.4,20.9-11.3,25.6c3.8,11,7.7,22,11.6,33
			c-5.6,0.7-8.3,1-13.9,1.7c-3.5-10.7-7-21.4-10.5-32.1c-1.2,0.1-1.8,0.2-3,0.3c0,11.2,0,22.4,0,33.7C7.4,91.1,4.9,91.5,0,92.3
			c0-30.3,0-60.6,0-91C8.3,1.3,12.4,1.3,20.7,1.3z M20,19.1c-3.1,0.1-4.6,0.1-7.7,0.2c0,8.8,0,13.3,0,22.1c3.1-0.2,4.6-0.3,7.6-0.5
			c4.6-0.3,6.8-4.5,6.8-11.3C26.8,23.1,24.6,18.9,20,19.1z"/>
		<path class="st0" d="M70.9,84.4c-20,2-26-26.4-26-40.9C45,28.2,51.2,0,71.1,0C90.3,0,97,26,96.9,41.1C96.9,56.9,90,82.5,70.9,84.4
			z M70.9,66.1c10.3-0.8,13.4-15.8,13.4-24.5C84.4,33.3,81.4,18,71,18.2c-10.6,0.2-13.5,16-13.5,24.6C57.5,50.9,60.4,66.9,70.9,66.1
			z"/>
		<path class="st0" d="M127.3,0.2c13.6,0.3,22.5,14.5,24,27.3c-5.4,0-8.2,0.1-13.6,0.1c-2.1-6.7-6.1-10.2-10.6-10
			c-10.2,0.5-12.8,14.9-12.8,23c0,7.9,2.5,22.4,12.8,22.4c4.6,0,8.5-3.6,10.7-10.4c5.4-0.1,8.2-0.2,13.6-0.2
			c-1.6,13-10.5,27.1-24.1,28c-19.3,1.2-25.5-24.5-25.5-39.4C101.7,25.9,108.1-0.2,127.3,0.2z"/>
		<path class="st0" d="M171.3,44.5c0,11.4,0,22.9,0,34.3c-5,0-7.4,0-12.4,0.1c0-26,0-51.9,0-77.9c4.9,0,7.4,0,12.4,0
			c0,11.4,0,22.7,0,34.1c5.6-11.4,11.3-22.7,16.9-34.1c5.8,0,8.7,0,14.5,0c-6.5,12.7-13.1,25.4-19.6,38.1
			c6.8,13.3,13.7,26.7,20.4,40c-6.1-0.2-9.1-0.2-15.1-0.3C182.7,67.5,177,56,171.3,44.5z"/>
		<path class="st0" d="M209.3,1.1c11,0,22,0,33,0c0,6.2,0,9.3,0,15.6c-8.3-0.1-12.4-0.1-20.7-0.2c0,6.6,0,10,0,16.6
			c6.2,0.1,9.3,0.2,15.5,0.3c0,6,0,9,0,15c-6.2-0.2-9.3-0.3-15.5-0.4c0,10.6,0,21.2,0.1,31.8c-5-0.2-7.4-0.3-12.4-0.4
			C209.3,53.3,209.3,27.2,209.3,1.1z"/>
		<path class="st0" d="M261.1,1.2c0.1,21.9,0.1,43.8,0.2,65.7c6.5,0.4,9.7,0.6,16.2,1.1c0,6.2,0,9.3,0,15.5
			c-9.5-0.9-19-1.6-28.6-2.2c-0.1-26.7-0.1-53.4-0.2-80.1C253.7,1.1,256.2,1.1,261.1,1.2z"/>
		<path class="st0" d="M283.3,1.2c4.9,0,7.4,0,12.4,0c0.1,28,0.1,56,0.2,84c-4.9-0.5-7.4-0.8-12.3-1.2
			C283.4,56.4,283.3,28.8,283.3,1.2z"/>
		<path class="st0" d="M325.4,62c-3.6,10.4-5.4,15.5-9,25.6c-5.6-0.7-8.4-1-14-1.6c5.5-14,10.8-28.1,16.1-42.1
			c-5.5-14.2-11-28.4-16.7-42.6c5.8,0,8.6,0,14.4,0c3.5,8.8,6.9,17.6,10.2,26.5c3.6-10.4,5.3-15.7,8.9-26.5c5.6,0,8.4,0,14,0
			c-5.2,14.9-10.6,29.8-16.1,44.6c5.7,15.4,11.3,30.8,16.7,46.3c-5.7-0.9-8.6-1.3-14.3-2.1C332.3,80.7,328.9,71.3,325.4,62z"/>
	</g>
</g>
</svg>
